Coordinates
version=1
nRows=11
nColumns=40
inDegrees=yes

Units are S.I. units (second, meters, Newtons, ...)
Angles are in degrees.

endheader
time	pelvis_tilt	pelvis_list	pelvis_rotation	pelvis_tx	pelvis_ty	pelvis_tz	hip_flexion_r	hip_adduction_r	hip_rotation_r	knee_angle_r	knee_angle_r_beta	ankle_angle_r	subtalar_angle_r	mtp_angle_r	hip_flexion_l	hip_adduction_l	hip_rotation_l	knee_angle_l	knee_angle_l_beta	ankle_angle_l	subtalar_angle_l	mtp_angle_l	lumbar_extension	lumbar_bending	lumbar_rotation	arm_flex_r	arm_add_r	arm_rot_r	elbow_flex_r	pro_sup_r	wrist_flex_r	wrist_dev_r	arm_flex_l	arm_add_l	arm_rot_l	elbow_flex_l	pro_sup_l	wrist_flex_l	wrist_dev_l
      1.56000000	      0.59972444	      5.38829555	     -8.63841423	      0.79058288	      0.87796127	     -0.98502724	     -1.14470259	     -8.53545679	     -2.94540893	    -52.72978248	     -0.92030832	    -22.04611024	     -8.23258630	      0.10503444	     20.68467382	     -5.50642551	      9.80050310	    -27.11272539	     -0.47320633	      4.40597939	      3.03585821	     -4.46140816	     -2.88842233	     -4.43246100	      4.62765326	     12.89220418	    -11.63534812	      7.20885064	     38.47842153	     89.95437384	      0.00000000	      0.00000000	    -11.58585914	      8.37642438	    -23.69936001	      8.19353912	     89.95437384	      0.00000000	      0.00000000
      1.57000000	      0.19257079	      5.66735397	     -8.84499570	      0.80321387	      0.87880511	     -0.98475197	      1.71338776	     -8.43756002	     -2.16613274	    -55.96214686	     -0.97672372	    -20.28905662	    -10.60809418	      0.71363977	     19.95351253	     -5.69760177	     10.66311237	    -26.61442758	     -0.46450939	      4.78987424	      2.25042130	     -4.13302824	     -2.48857354	     -4.59769243	      4.31482124	     12.73992556	    -11.19519437	      7.61121718	     37.76792065	     89.95437384	      0.00000000	      0.00000000	    -10.99266681	      8.62024709	    -24.09900777	      8.84075674	     89.95437384	      0.00000000	      0.00000000
      1.58000000	      0.02638418	      5.66686800	     -8.90423853	      0.81613006	      0.88027269	     -0.98441204	      4.08545298	     -8.03972310	     -1.70527024	    -58.62899074	     -1.02326893	    -17.51464061	    -11.65447786	      7.45027765	     18.87537075	     -5.73257458	     11.21439412	    -26.16000817	     -0.45657827	      5.63124315	      1.11639862	     -2.49076103	     -2.36909499	     -4.48262242	      3.81463284	     12.64472887	    -10.70700187	      7.91964729	     36.83795921	     89.95437384	      0.00000000	      0.00000000	    -10.29861589	      8.94770097	    -25.41709218	      9.49364840	     89.95437384	      0.00000000	      0.00000000
      1.59000000	      0.19385956	      5.46189798	     -8.89730322	      0.82912999	      0.88237530	     -0.98425148	      5.93301869	     -7.59868109	     -1.57021171	    -60.59446606	     -1.05757294	    -16.03325823	    -12.47016267	      7.24657469	     17.23703098	     -5.77820396	     11.07445932	    -25.36976113	     -0.44278586	      6.19480927	      0.66708516	     -2.56912974	     -2.66381022	     -4.15754886	      3.27265940	     12.56172070	    -10.31794275	      8.27500997	     35.86526610	     89.95437384	      0.00000000	      0.00000000	     -9.34295960	      9.01218503	    -25.39036713	      9.79550084	     89.95437384	      0.00000000	      0.00000000
      1.60000000	      0.27355432	      5.42013136	     -8.91282482	      0.84239550	      0.88433421	     -0.98398949	      7.79494255	     -7.11515463	     -1.16431750	    -62.16211179	     -1.08493352	    -13.89987847	    -13.62045160	      7.10214820	     15.63363712	     -5.98470922	     11.04826767	    -24.38531039	     -0.42560396	      6.76556820	      0.30792997	     -2.63549719	     -2.78035147	     -4.00735976	      2.66388529	     12.44546923	     -9.90186835	      8.88791185	     34.80612466	     89.95437384	      0.00000000	      0.00000000	     -8.43995865	      9.13171918	    -25.39829624	     10.14152515	     89.95437384	      0.00000000	      0.00000000
      1.61000000	      0.35624286	      5.24557278	     -8.98914710	      0.85551207	      0.88627772	     -0.98376115	      9.62862052	     -6.53359532	     -0.84923661	    -63.33798622	     -1.10545640	    -12.11436409	    -14.30139274	      7.01142579	     14.03681289	     -6.06491996	     10.96097024	    -23.43558707	     -0.40902816	      7.22563776	      0.13023301	     -2.66216751	     -2.92739699	     -3.67245095	      2.22912434	     12.27246840	     -9.61544056	      9.48999481	     33.74573136	     89.95437384	      0.00000000	      0.00000000	     -7.41884530	      9.20790949	    -25.44820701	     10.48992402	     89.95437384	      0.00000000	      0.00000000
      1.62000000	      0.39790480	      4.95453242	     -9.02616216	      0.86858224	      0.88814972	     -0.98344466	     11.40267612	     -5.82646007	     -0.68958024	    -64.05503443	     -1.11797125	    -10.52831711	    -14.70950864	      6.91890734	     12.44179757	     -6.00539576	     10.72472785	    -22.44791231	     -0.39178998	      7.76354843	     -0.08990760	     -2.68008721	     -3.04169043	     -3.20487325	      1.80764165	     12.02474875	     -9.34493520	     10.00173153	     32.66036708	     89.95437384	      0.00000000	      0.00000000	     -6.28941013	      9.26838051	    -25.51576125	     10.74356071	     89.95437384	      0.00000000	      0.00000000
      1.63000000	      0.48795654	      4.62660762	     -8.98414793	      0.88174975	      0.88998984	     -0.98330610	     12.98867910	     -5.05095221	     -0.57063446	    -64.38083888	     -1.12365761	     -8.46234253	    -15.05677472	      6.82201629	     10.80114391	     -5.95836106	     10.56281743	    -21.47799658	     -0.37486176	      8.12363485	     -0.12096021	     -2.65745166	     -3.20512441	     -2.68393857	      1.29607724	     11.75288389	     -9.13527931	     10.63607312	     31.58487122	     89.95437384	      0.00000000	      0.00000000	     -5.16247475	      9.34773935	    -25.57100695	     11.11628542	     89.95437384	      0.00000000	      0.00000000
      1.64000000	      0.43363274	      4.26151053	     -8.80199216	      0.89456462	      0.89140047	     -0.98337266	     14.77483718	     -4.43496210	     -0.94082450	    -64.45056335	     -1.12487454	     -7.35506122	    -15.09736782	      6.70640372	      9.43078584	     -5.78249605	     10.70501769	    -20.66301231	     -0.36063760	      8.48631999	     -0.12129443	     -2.64208863	     -3.26928210	     -2.08571024	      0.71284041	     11.34491289	     -8.95793600	     11.00514414	     30.73867746	     89.95437384	      0.00000000	      0.00000000	     -3.91359742	      9.40718700	    -25.56192671	     11.44043773	     89.95437384	      0.00000000	      0.00000000
      1.65000000	      1.21937836	      3.79223663	     -8.78123402	      0.90842151	      0.89418300	     -0.98299625	     15.11081030	     -3.62051258	     -0.93213261	    -63.62838389	     -1.11052480	     -4.63745677	    -14.61967040	      7.01317011	      6.55849250	     -5.79494441	      9.96567811	    -18.90631329	     -0.32997742	      8.79135835	      0.01253713	     -2.52414757	     -4.16165648	     -1.52744602	      0.19045329	     11.12097692	     -8.95190508	     12.44864808	     29.58548933	     89.95437384	      0.00000000	      0.00000000	     -2.75631655	      9.54313763	    -25.29304886	     12.03156184	     89.95437384	      0.00000000	      0.00000000
      1.66000000	      1.00754475	      3.44395993	     -8.62238944	      0.92089345	      0.89498677	     -0.98289995	     16.88913737	     -2.85358189	     -1.12137093	    -62.95689134	     -1.09880504	     -3.52534348	    -14.71677714	      7.00258653	      5.30863848	     -5.61964350	      9.82919762	    -17.91703508	     -0.31271125	      9.09531560	     -0.17799798	     -2.53601918	     -4.05545484	     -0.93463233	     -0.22825184	     10.66539551	     -8.81910224	     12.81912266	     28.59135684	     89.95437384	      0.00000000	      0.00000000	     -1.44044202	      9.66528130	    -25.13166450	     12.49172416	     89.95437384	      0.00000000	      0.00000000
